<svg width="437" height="145" viewBox="0 0 437 145" fill="none" xmlns="http://www.w3.org/2000/svg">
<g id="Frame 1">
<g id="rari">
<path id="Vector" d="M436.808 0L431.208 24.6H385.008L390.608 0H436.808ZM428.608 35.2L404.208 141.2H358.008L382.608 35.2H428.608Z" fill="white"/>
<path id="Vector_2" d="M370.705 32.9999L361.105 74.5999C355.905 73.1332 350.705 72.3999 345.505 72.3999C336.971 72.3999 330.571 74.5332 326.305 78.7999C324.571 80.5332 322.971 83.2666 321.505 86.9999C319.505 92.5999 315.171 110.667 308.505 141.2H262.305L286.705 35.1999H332.705L328.905 51.7999C332.105 48.0666 334.638 45.3999 336.505 43.7999C344.771 36.1999 353.771 32.3999 363.505 32.3999C365.905 32.3999 368.305 32.5999 370.705 32.9999Z" fill="white"/>
<path id="Vector_3" d="M253.303 64.8C253.303 69.7333 252.436 75.9333 250.703 83.4L241.503 123.4C240.836 125.8 240.503 128.333 240.503 131C240.503 131.933 241.236 135.333 242.703 141.2H193.303C192.903 137.467 192.97 133.533 193.503 129.4C186.303 133.267 182.236 135.467 181.303 136C169.436 141.6 156.17 144.4 141.503 144.4C135.77 144.4 130.636 143.867 126.103 142.8C123.836 142.267 121.57 141.533 119.303 140.6C117.036 139.667 114.103 138.133 110.503 136C107.036 133.733 104.17 130.667 101.903 126.8C99.7698 122.8 98.7031 118.2 98.7031 113C98.7031 109.667 99.2365 106.4 100.303 103.2C103.37 94.5333 108.97 88.1333 117.103 84C118.703 83.2 120.503 82.4667 122.503 81.8C124.503 81 126.703 80.4 129.103 80C131.636 79.4667 133.903 79 135.903 78.6C138.036 78.2 140.636 77.8667 143.703 77.6C146.77 77.2 149.17 76.9333 150.903 76.8C152.77 76.5333 155.37 76.3333 158.703 76.2C162.036 76.0667 164.303 76 165.503 76C166.836 75.8667 169.103 75.7333 172.303 75.6C175.636 75.4667 177.57 75.4 178.103 75.4C181.036 75.2667 185.503 75.1333 191.503 75C197.503 74.7333 201.97 74.5333 204.903 74.4C205.436 70.5333 204.97 67.4667 203.503 65.2C200.836 60.8 194.103 58.6 183.303 58.6C173.436 58.6 166.703 59.8667 163.103 62.4C162.036 63.2 160.636 65 158.903 67.8H113.303C116.37 59.5333 119.103 53.9333 121.503 51C124.97 46.7333 129.503 43.2 135.103 40.4C140.703 37.6 147.036 35.6667 154.103 34.6C161.17 33.5333 167.236 32.8667 172.303 32.6C177.37 32.2 183.303 32 190.103 32C215.17 32 232.236 34.8667 241.303 40.6C249.303 45.6667 253.303 53.7333 253.303 64.8ZM200.303 94.2C189.103 93.5333 178.37 94 168.103 95.6C160.77 96.6667 155.703 98 152.903 99.6C149.436 101.333 147.703 103.867 147.703 107.2C147.703 108.667 148.303 110.267 149.503 112C152.036 115.067 156.37 116.6 162.503 116.6C178.37 116.6 189.703 111.8 196.503 102.2C197.836 100.467 199.103 97.8 200.303 94.2Z" fill="white"/>
<path id="Vector_4" d="M108.4 32.9999L98.8 74.5999C93.6 73.1332 88.4 72.3999 83.2 72.3999C74.6667 72.3999 68.2667 74.5332 64 78.7999C62.2667 80.5332 60.6667 83.2666 59.2 86.9999C57.2 92.5999 52.8667 110.667 46.2 141.2H0L24.4 35.1999H70.4L66.6 51.7999C69.8 48.0666 72.3333 45.3999 74.2 43.7999C82.4667 36.1999 91.4667 32.3999 101.2 32.3999C103.6 32.3999 106 32.5999 108.4 32.9999Z" fill="white"/>
</g>
</g>
</svg>
